<mxfile host="app.diagrams.net" modified="2022-02-15T14:36:59.624Z" agent="5.0 (Macintosh; Intel Mac OS X 10_15_7) AppleWebKit/537.36 (KHTML, like Gecko) Chrome/97.0.4692.99 Safari/537.36" etag="m8tlBWoMoV9vf06MEcgu" version="16.5.5" type="github">
  <diagram id="78hYoC3Gxm-GuxJTd_eE" name="local">
    <mxGraphModel dx="2430" dy="1856" grid="1" gridSize="10" guides="1" tooltips="1" connect="1" arrows="1" fold="1" page="1" pageScale="1" pageWidth="827" pageHeight="1169" math="0" shadow="0">
      <root>
        <mxCell id="0" />
        <mxCell id="1" parent="0" />
        <mxCell id="liBnOG251hMEMn1EUAHr-45" value="" style="shape=image;verticalLabelPosition=bottom;labelBackgroundColor=default;verticalAlign=top;aspect=fixed;imageAspect=0;image=https://perfectacle.github.io/2017/08/02/Spring-boot-study-001day/thumb.png;" parent="1" vertex="1">
          <mxGeometry x="1300" y="481.25" width="67.5" height="67.5" as="geometry" />
        </mxCell>
        <mxCell id="liBnOG251hMEMn1EUAHr-65" value="" style="rounded=1;whiteSpace=wrap;html=1;fontSize=20;fillColor=none;strokeWidth=3;strokeColor=#20bf50;" parent="1" vertex="1">
          <mxGeometry x="410" y="470" width="300" height="110" as="geometry" />
        </mxCell>
        <mxCell id="liBnOG251hMEMn1EUAHr-66" value="User" style="sketch=0;outlineConnect=0;fontColor=#232F3E;gradientColor=none;strokeColor=#232F3E;fillColor=#ffffff;dashed=0;verticalLabelPosition=bottom;verticalAlign=top;align=center;html=1;fontSize=12;fontStyle=0;aspect=fixed;shape=mxgraph.aws4.resourceIcon;resIcon=mxgraph.aws4.user;" parent="1" vertex="1">
          <mxGeometry x="130" y="490" width="60" height="60" as="geometry" />
        </mxCell>
        <mxCell id="liBnOG251hMEMn1EUAHr-67" value="" style="shape=image;verticalLabelPosition=bottom;labelBackgroundColor=default;verticalAlign=top;aspect=fixed;imageAspect=0;image=data:image/png,iVBORw0KGgoAAAANSUhEUgAAAO0AAADVCAMAAACMuod9AAAAilBMVEX///9tsz9qsjuGv2NqsjhmsDNhrilkry9psTlkrzBgrihfrST9/vz0+fHy+O7L4r7r9Obg7th1t0q01qHJ4byt0pjS5sfk8N2JwGi42KaVxniizYqnz5CMwmy11qJwtUN9u1e/3K+byYCXx3t7ulSQxHLR5sbY6c/f7dhaqxm+3K2p0JTD3bTo8uERKsFgAAAO20lEQVR4nO1d2XbiOBDFshav7JAAIRgCIRPI///eSLYxNra1WV4e+j7MnO500yok1XarSqPRP/zDPyQIZpvd9t1uD5fT6juUXMw4aFXU5R5iBB0HtAbHcRDB581YZj2na3uyjm+EQKsTAIT3M+GCwv9Obcka7nzUjagJHPz+JljSByItCfuLOpU1kXfHvZchsch3G7KObdK1rAwI8o7zClnOpQVhr9DpQ1gK77d2USE7bERWfctj4vckKwXe1a1qwaR1l6aFPfYoLN29Gr0bYPZT592wsH3ubCxu9e5uEq2JpQyzNP56FpYKtKlYVgBA/EN0NCrtHPQsrGX5FZp549IfUN0JIpPCLty+ZaUSzUvLCiDdhMOWiusbPMrj3s8xg/v5uq4bvbXkviZmj/K2I8dYAPxiVsdMIR9GAZXZsY0JO8N9y5kAfhXXdaFHGE+S/xNjRznqX0UlwAVF9Y3TPZ3Qo+zeDQm77MU7rkLhvAbsevksQgqxOQcjGIA+fgDnXESmTFDic7zTo+yZ8ZU/Og/y6gFgtqw73VBwSILBu2vKV54OREUlQKvHstj18tIcTUgtpLM1Ie2+rzCvGniaLIs5d+7HY5E208oGknHXQW1ttoUnZmPP2Sp/mZthIBk3AAe5CMyE+mTnmEyzVbLrBmtjYGn8Dsb6PADOafjp5bNRZ+YwNxU2HIbLWAC5v7HbRVb5ha7oUcai7KQIuwFZnwyHA/0PKqpg5tyiUtSghv5j+Do40ctSSfMg931Y1ucJ5/Bqbr5YkNvInfoemPXJAKxSxBNHBo3cqcFZnxQgZ3seiCODJoTQZkDhQB6AVClfG1gA6Asben2LVQ0A/6qWy9LoWMwI1uE0QFtrMZqzfIwZYhtUlYWVws8wVZRzqEvJwCYhfTRI64POtVaGJVpdzThoMsitJfv6FbOQXjcOGuSlxR+cFbM4CK04f6AeqyE6yD4/r2glAZI6xoML9Gj8CgQxDjMiWs7jdngqiryLNNCSXdy1urCzwTkWwBebUt2Lex6ag4zmlf7TC6hfrxH13Qd2a4HH08VP7Fg+XfXiPgjvoQBZku7vUsfiDokckN/YUZJRRws1YaeDSs+QSCGu0XCVh0QOIDWikhlOpCTsejgOsoNval7+kcW4Mto7w2DSM9DfVkey9WAxrtJpGAo5IFGqW0agSJCEwxAW+pcfZVlHSXKqXGhUiyGQAwD5J6XL98QHVClofetfRQECVtpZ8Ni/kD4Vds/Wh26rPdEVleIPKxSK9UwOQLqtqmq4iIAaFCibQz/0Kio00Opiy4dBn32RAxBhuLuaaGJiagpJfVAv6RkAXQz2m6ZE8wMs8SjHWn91m2d0ICKY2Ltls6taxI8s1TdrP/aJe9YQolJiD152v2vjLXisckoqW9NC7SaVDSLXdQn2MCbQOp8j+2vx+Xt9M7mfBbCgT6I9yGTtJqAyEuwDe/u129yXk/VsPB6HYau9lCn2UKa4JjCzs4BdRnjerSbX1raPC1aOLk4q3ww4yI7rWftNT2KmYL4jFvmO48ZeFMJ4e592cVi5mMko5UsjBxkgfFhphWjGweovRJm4RrWbNGr5GIaoo0T/OF/8P9OAHHC8qEnUoo06Uy32lI/a1gfibU/bWhfXsTIxbm1NoOsyOv6pNwVcl1NnzDOXHtEkBwDe92dsrnUNyHFcwFnXn56KcuctTl4Q4lIX6FwJn8XVqt10fL0SB0MI/bqfTPk55bUONU3sXj2m0arW82eN9JwqMR1yACsyacZB6ncP8DLoGuSAg/TrCc1g+V99k+KcE/NpkAMoMj9wQREHDiHA3Iu6/tSTsvXBrY2Fkcbd57QQUJe/rmxKnRzo/cpSJK2ZNdhSaa1qt1KZHMCm+lwb4Eh4JW83WNflpkwO+ManhqgjANyQLm4NqtQsirJa3gB2dnRDPM8wKUKv4ghVBztUTtjoGmOfPxLgt6bkXpUcqJme0jEuDr/YoK5qSpEcQG2McVLGGgs6bdn4iwppFWs3wbz3FBtFcLAQv1wsDoLK08QU0zN+v3FAihviRq+jRFq3JK0iOYAHYHtiskpEfFyrGhgDJVktaKQJvzFowIYFSYR48gp+yQyqdQ4AOIRLy0p+hNT7T3JmC+tVJAdev6t+cPXpSkS19LNYWrfgbu2UrI/BET8NwHKj4q6QRNqCmQoVt3YQ+pgl0IRb+5iYlM/WHJV8RuminFbxKdctfk1tTY7FVcszGh6pp4drPPZBnNV9SPssNgmVFLKBuRnNMWZLltEf61Ta51FW4/RMjpjTxpmdRk+iOGiSXlIn63D8VdnbRu3opvDFViylPzLZsrkJSvZHSOx3gEV8PKWKcRcPabMEhgoVr9f3aBaTOFwjUsmEzEnMQnqV2ijDUz91kBSuSX7t2bnNuK+5vLANJ4SYwDQdLSt3o7I0ahbkKpTm9u80jmF8EgVBfIZsJ93J6++I4fZ9kEMruXayozusxy0lD2kV7q3Xs7EN5snJ9CX7iJ+OU3Zv5bvX+tbIwTlZKpL1554zCjOdLG9voXSHZDuIkpXKd/l8ZwmozN5upH0p8wPUlWCn28KjuYo4ZqJlvtRaOgPXa2QbpDtrEXliMTu2z95UaY4aWK2IIYcwVVBKVjAztzlqTFYpmx0oroaplS4cKDTDPyvdclyQ7MWFtzbkkMIbeuyIr1CYlcsuPn9zKsmKqLahm8NTtShc2pxKLvRSSFpcndkgRrDMOljUyLZbKd5jeJPb3AazxxphlQmr0k87eiqpF69arpim8bRPPVyeNgOpea6Pb+lFsckl4nrxksfz59okkox5pKlzi7yWuEoNMPR7oH/W7tM8CkZKlfCZfE+g3BIktbfdS7vKaRTl4iwb1J0ImckWnZ/k8D3n5ikXeqQ+YiXFK0EYdO0mz2AuOlMv9EitbeWqJYrO1SaDNMYi3yeK1KcznuL9q8npiOc9dJpLLr4JByNlnRHEf7+OWQ+EoVCX3sXdzd8s56yuIBNvs7ZSW9gI1M7DflUI94V7BTWETYb3ccI2URVR01ni0liiQvJIS9iEguf4IyKyr6OIj25s4WvXEjah4LnFPwJGqLZm3Sg2uLgKZGs5NfFB5TLrgkC3i0zN9fyiPTRMT/w57JwKRgQI6qZady/GF+9FdxBBQ2kd9vHN558KQcM8abdQKljh16skP+OviHh6n7Cuiz+rst3s+RGWTpZf/x4qH8yPkmA2uFaoTWZkYrmv/zTQTg3FjIiE68evU27t4i7n5UPlVM+rl8FJcq4HvwZdf048F/cDKR8p19ZmxuM8m1ReidtfoJgFk0KwAVX/ZP2bvmKw7Jvk014LnhWSqVFSwvQDViWJQJN67zgzIVsdzxHWdCXcdV/9hjuaN1AQcWm5NMXLndfvmiszmS4OJfuaAH81yYDFnf/ybBGvn88UOxLcbVxzZZxmHXNvzLEg8gUi3F5NEw+ch/e9X7Ku2T8QNUv2HYAiG8l7Q0W2dqcW4/s7dmtPj8N5Tl4KccLJV7HUXP66ET/yt4k4olJVbDfM4sZjDhSH2fOoA23OOlzvDh7ieaYINi3siF1GZa+ANxvB1VFUPxsbEX7xDvBPjXVCvG5Rk1AJ3LkXKvQ4w3i5xRgJsvOARM0TuO/s+3Q4b8vUgNtVXvPiUhXG3x9nj3NTs49sfIgpTvEF1AhduNQBAFK6hEo6xwRK1LAgb2WAUbvFyhXp5Aq5s4gAFIk7Xe4sT0pSuj7yYcJDW+FkaTrfW8BNUQHeizVvv9s5diXrCQEiNyPcYSJsPTnAB586AH5l0ie4Lmwk1Ei5jyFwY4YV3ibL1U6vCKgDb/eyzOlkF/lEXlIaUXmRocrJwE6PojZXdRVU2iCYbW94/dyzw6vSoA1cf2eKRvt7VMo16AwWPfoEyHwyCmb3E8RKWxp/VTg6GitsuPuPr7lB291YWEYFyAETtS1lfwt5h5U55jv8yqxlo3hUouVaefoWQBiuTOZ7vvP1Ck0+yNCs3YKoc6OijqZ5QrAhl2FyjrLluP7502zpRnDL53oa9+8Ym5HtELK/G65ACjaocNXkK/Br8FMx/9xxMSaYKChhelW/Jqa7xILNS27WQNN3iToA+H05DYLx+uRLyUsV8Hw1M15FN92h18SAgXToK3UA55lHMN4LiyPpMYg25rmjYGL7JTfcNcHaFMdOwUJZwI6rxKioxq/qiLniO1hxjQyRNvmmRvDytPulNtBxCN4vzTd0hpMTrE74eGYK4/Pj4l597prxww5xTt/Gr2q4XtCoo0ZZ6L/b/IJn0qZMiVa0m1Czul0bFjX8Oe4i6ozX20NjNZhP6qDsq7y60g5xL0uToo6vk9sFEIz4znjjnP4TWb1nhY4vNO86aMtuTzAeX7+XyzvFcfMZ4/d+Xy6Xk+/v68/fNHmLovY7CcL4798/tpcD9oiLHLGLI/cwjhSyOTag/Jn55prD5fe42kdzSH0P4jKgDPEvCQNmIAha8/n5fI4Y7BRRRH/nAJj3QoVEjrQDo0ByiZGN3i3/qFA+BxCCEhuR/uH4GZkyZCXMf5TZ6peUOqggRQfxFrAyOcBH2nVQUZPT/yt2ktUzKkiuZ5k7k+/dbRHGR+ek7+CWjrI9gIOsRQ7wkVAHr0HVMB61Nt+mFCTWHReY89kQbq0mOcBHuo0k57TchyBsSw3fqa1B1iQ5OVd7EMfYb6eR5fpI2hD0/nXaW3gACopqEs1qbSGebpNDMQhZ6VffVm9hL49NCqBVAyIHtWmt3aA1YUcjVcKndeA2u8+WQzA5ObQ83Cvq+XHnF7Q8tmAQzlOG1seG8uo9O0f1IxMGEbb/Lq40SoMdzENqVEQnaKOjo4TDUKyQeFS0AfT8DH0GjdpNHSi/ItQOvG7GUfwNQlEZJAf4EI+K6AAVifx2EKiXDRmH192TCR08Ri8AaiuGr0LfCSkn6lDY0WjRq7jOvOMpzp86r4saAupaWDbOqC+zS7Y9jDCbznvxmIHf01Nx5XkN7ctKom5nXOUwvciVwxmDC3qdRD7b8xvzTMIhyFDDhT6mqzlGsOUtBg4i8KuvuahF/B1P9hzA9nCItotr39v6D/8wHPwPxGfphC6yJdIAAAAASUVORK5CYII=;" parent="1" vertex="1">
          <mxGeometry x="439.51" y="492.5" width="72.32" height="65" as="geometry" />
        </mxCell>
        <mxCell id="liBnOG251hMEMn1EUAHr-68" value="&lt;font style=&quot;font-size: 20px&quot;&gt;API Gateway&lt;br&gt;&lt;/font&gt;" style="text;html=1;strokeColor=none;fillColor=none;align=center;verticalAlign=middle;whiteSpace=wrap;rounded=0;" parent="1" vertex="1">
          <mxGeometry x="520" y="492.5" width="130" height="60" as="geometry" />
        </mxCell>
        <mxCell id="liBnOG251hMEMn1EUAHr-69" value="" style="rounded=1;whiteSpace=wrap;html=1;fontSize=20;fillColor=none;strokeWidth=3;strokeColor=#20bf50;" parent="1" vertex="1">
          <mxGeometry x="847.49" y="100" width="300" height="110" as="geometry" />
        </mxCell>
        <mxCell id="liBnOG251hMEMn1EUAHr-70" value="" style="shape=image;verticalLabelPosition=bottom;labelBackgroundColor=default;verticalAlign=top;aspect=fixed;imageAspect=0;image=data:image/png,iVBORw0KGgoAAAANSUhEUgAAAO0AAADVCAMAAACMuod9AAAAilBMVEX///9tsz9qsjuGv2NqsjhmsDNhrilkry9psTlkrzBgrihfrST9/vz0+fHy+O7L4r7r9Obg7th1t0q01qHJ4byt0pjS5sfk8N2JwGi42KaVxniizYqnz5CMwmy11qJwtUN9u1e/3K+byYCXx3t7ulSQxHLR5sbY6c/f7dhaqxm+3K2p0JTD3bTo8uERKsFgAAAO20lEQVR4nO1d2XbiOBDFshav7JAAIRgCIRPI///eSLYxNra1WV4e+j7MnO500yok1XarSqPRP/zDPyQIZpvd9t1uD5fT6juUXMw4aFXU5R5iBB0HtAbHcRDB581YZj2na3uyjm+EQKsTAIT3M+GCwv9Obcka7nzUjagJHPz+JljSByItCfuLOpU1kXfHvZchsch3G7KObdK1rAwI8o7zClnOpQVhr9DpQ1gK77d2USE7bERWfctj4vckKwXe1a1qwaR1l6aFPfYoLN29Gr0bYPZT592wsH3ubCxu9e5uEq2JpQyzNP56FpYKtKlYVgBA/EN0NCrtHPQsrGX5FZp549IfUN0JIpPCLty+ZaUSzUvLCiDdhMOWiusbPMrj3s8xg/v5uq4bvbXkviZmj/K2I8dYAPxiVsdMIR9GAZXZsY0JO8N9y5kAfhXXdaFHGE+S/xNjRznqX0UlwAVF9Y3TPZ3Qo+zeDQm77MU7rkLhvAbsevksQgqxOQcjGIA+fgDnXESmTFDic7zTo+yZ8ZU/Og/y6gFgtqw73VBwSILBu2vKV54OREUlQKvHstj18tIcTUgtpLM1Ie2+rzCvGniaLIs5d+7HY5E208oGknHXQW1ttoUnZmPP2Sp/mZthIBk3AAe5CMyE+mTnmEyzVbLrBmtjYGn8Dsb6PADOafjp5bNRZ+YwNxU2HIbLWAC5v7HbRVb5ha7oUcai7KQIuwFZnwyHA/0PKqpg5tyiUtSghv5j+Do40ctSSfMg931Y1ucJ5/Bqbr5YkNvInfoemPXJAKxSxBNHBo3cqcFZnxQgZ3seiCODJoTQZkDhQB6AVClfG1gA6Asben2LVQ0A/6qWy9LoWMwI1uE0QFtrMZqzfIwZYhtUlYWVws8wVZRzqEvJwCYhfTRI64POtVaGJVpdzThoMsitJfv6FbOQXjcOGuSlxR+cFbM4CK04f6AeqyE6yD4/r2glAZI6xoML9Gj8CgQxDjMiWs7jdngqiryLNNCSXdy1urCzwTkWwBebUt2Lex6ag4zmlf7TC6hfrxH13Qd2a4HH08VP7Fg+XfXiPgjvoQBZku7vUsfiDokckN/YUZJRRws1YaeDSs+QSCGu0XCVh0QOIDWikhlOpCTsejgOsoNval7+kcW4Mto7w2DSM9DfVkey9WAxrtJpGAo5IFGqW0agSJCEwxAW+pcfZVlHSXKqXGhUiyGQAwD5J6XL98QHVClofetfRQECVtpZ8Ni/kD4Vds/Wh26rPdEVleIPKxSK9UwOQLqtqmq4iIAaFCibQz/0Kio00Opiy4dBn32RAxBhuLuaaGJiagpJfVAv6RkAXQz2m6ZE8wMs8SjHWn91m2d0ICKY2Ltls6taxI8s1TdrP/aJe9YQolJiD152v2vjLXisckoqW9NC7SaVDSLXdQn2MCbQOp8j+2vx+Xt9M7mfBbCgT6I9yGTtJqAyEuwDe/u129yXk/VsPB6HYau9lCn2UKa4JjCzs4BdRnjerSbX1raPC1aOLk4q3ww4yI7rWftNT2KmYL4jFvmO48ZeFMJ4e592cVi5mMko5UsjBxkgfFhphWjGweovRJm4RrWbNGr5GIaoo0T/OF/8P9OAHHC8qEnUoo06Uy32lI/a1gfibU/bWhfXsTIxbm1NoOsyOv6pNwVcl1NnzDOXHtEkBwDe92dsrnUNyHFcwFnXn56KcuctTl4Q4lIX6FwJn8XVqt10fL0SB0MI/bqfTPk55bUONU3sXj2m0arW82eN9JwqMR1yACsyacZB6ncP8DLoGuSAg/TrCc1g+V99k+KcE/NpkAMoMj9wQREHDiHA3Iu6/tSTsvXBrY2Fkcbd57QQUJe/rmxKnRzo/cpSJK2ZNdhSaa1qt1KZHMCm+lwb4Eh4JW83WNflpkwO+ManhqgjANyQLm4NqtQsirJa3gB2dnRDPM8wKUKv4ghVBztUTtjoGmOfPxLgt6bkXpUcqJme0jEuDr/YoK5qSpEcQG2McVLGGgs6bdn4iwppFWs3wbz3FBtFcLAQv1wsDoLK08QU0zN+v3FAihviRq+jRFq3JK0iOYAHYHtiskpEfFyrGhgDJVktaKQJvzFowIYFSYR48gp+yQyqdQ4AOIRLy0p+hNT7T3JmC+tVJAdev6t+cPXpSkS19LNYWrfgbu2UrI/BET8NwHKj4q6QRNqCmQoVt3YQ+pgl0IRb+5iYlM/WHJV8RuminFbxKdctfk1tTY7FVcszGh6pp4drPPZBnNV9SPssNgmVFLKBuRnNMWZLltEf61Ta51FW4/RMjpjTxpmdRk+iOGiSXlIn63D8VdnbRu3opvDFViylPzLZsrkJSvZHSOx3gEV8PKWKcRcPabMEhgoVr9f3aBaTOFwjUsmEzEnMQnqV2ijDUz91kBSuSX7t2bnNuK+5vLANJ4SYwDQdLSt3o7I0ahbkKpTm9u80jmF8EgVBfIZsJ93J6++I4fZ9kEMruXayozusxy0lD2kV7q3Xs7EN5snJ9CX7iJ+OU3Zv5bvX+tbIwTlZKpL1554zCjOdLG9voXSHZDuIkpXKd/l8ZwmozN5upH0p8wPUlWCn28KjuYo4ZqJlvtRaOgPXa2QbpDtrEXliMTu2z95UaY4aWK2IIYcwVVBKVjAztzlqTFYpmx0oroaplS4cKDTDPyvdclyQ7MWFtzbkkMIbeuyIr1CYlcsuPn9zKsmKqLahm8NTtShc2pxKLvRSSFpcndkgRrDMOljUyLZbKd5jeJPb3AazxxphlQmr0k87eiqpF69arpim8bRPPVyeNgOpea6Pb+lFsckl4nrxksfz59okkox5pKlzi7yWuEoNMPR7oH/W7tM8CkZKlfCZfE+g3BIktbfdS7vKaRTl4iwb1J0ImckWnZ/k8D3n5ikXeqQ+YiXFK0EYdO0mz2AuOlMv9EitbeWqJYrO1SaDNMYi3yeK1KcznuL9q8npiOc9dJpLLr4JByNlnRHEf7+OWQ+EoVCX3sXdzd8s56yuIBNvs7ZSW9gI1M7DflUI94V7BTWETYb3ccI2URVR01ni0liiQvJIS9iEguf4IyKyr6OIj25s4WvXEjah4LnFPwJGqLZm3Sg2uLgKZGs5NfFB5TLrgkC3i0zN9fyiPTRMT/w57JwKRgQI6qZady/GF+9FdxBBQ2kd9vHN558KQcM8abdQKljh16skP+OviHh6n7Cuiz+rst3s+RGWTpZf/x4qH8yPkmA2uFaoTWZkYrmv/zTQTg3FjIiE68evU27t4i7n5UPlVM+rl8FJcq4HvwZdf048F/cDKR8p19ZmxuM8m1ReidtfoJgFk0KwAVX/ZP2bvmKw7Jvk014LnhWSqVFSwvQDViWJQJN67zgzIVsdzxHWdCXcdV/9hjuaN1AQcWm5NMXLndfvmiszmS4OJfuaAH81yYDFnf/ybBGvn88UOxLcbVxzZZxmHXNvzLEg8gUi3F5NEw+ch/e9X7Ku2T8QNUv2HYAiG8l7Q0W2dqcW4/s7dmtPj8N5Tl4KccLJV7HUXP66ET/yt4k4olJVbDfM4sZjDhSH2fOoA23OOlzvDh7ieaYINi3siF1GZa+ANxvB1VFUPxsbEX7xDvBPjXVCvG5Rk1AJ3LkXKvQ4w3i5xRgJsvOARM0TuO/s+3Q4b8vUgNtVXvPiUhXG3x9nj3NTs49sfIgpTvEF1AhduNQBAFK6hEo6xwRK1LAgb2WAUbvFyhXp5Aq5s4gAFIk7Xe4sT0pSuj7yYcJDW+FkaTrfW8BNUQHeizVvv9s5diXrCQEiNyPcYSJsPTnAB586AH5l0ie4Lmwk1Ei5jyFwY4YV3ibL1U6vCKgDb/eyzOlkF/lEXlIaUXmRocrJwE6PojZXdRVU2iCYbW94/dyzw6vSoA1cf2eKRvt7VMo16AwWPfoEyHwyCmb3E8RKWxp/VTg6GitsuPuPr7lB291YWEYFyAETtS1lfwt5h5U55jv8yqxlo3hUouVaefoWQBiuTOZ7vvP1Ck0+yNCs3YKoc6OijqZ5QrAhl2FyjrLluP7502zpRnDL53oa9+8Ym5HtELK/G65ACjaocNXkK/Br8FMx/9xxMSaYKChhelW/Jqa7xILNS27WQNN3iToA+H05DYLx+uRLyUsV8Hw1M15FN92h18SAgXToK3UA55lHMN4LiyPpMYg25rmjYGL7JTfcNcHaFMdOwUJZwI6rxKioxq/qiLniO1hxjQyRNvmmRvDytPulNtBxCN4vzTd0hpMTrE74eGYK4/Pj4l597prxww5xTt/Gr2q4XtCoo0ZZ6L/b/IJn0qZMiVa0m1Czul0bFjX8Oe4i6ozX20NjNZhP6qDsq7y60g5xL0uToo6vk9sFEIz4znjjnP4TWb1nhY4vNO86aMtuTzAeX7+XyzvFcfMZ4/d+Xy6Xk+/v68/fNHmLovY7CcL4798/tpcD9oiLHLGLI/cwjhSyOTag/Jn55prD5fe42kdzSH0P4jKgDPEvCQNmIAha8/n5fI4Y7BRRRH/nAJj3QoVEjrQDo0ByiZGN3i3/qFA+BxCCEhuR/uH4GZkyZCXMf5TZ6peUOqggRQfxFrAyOcBH2nVQUZPT/yt2ktUzKkiuZ5k7k+/dbRHGR+ek7+CWjrI9gIOsRQ7wkVAHr0HVMB61Nt+mFCTWHReY89kQbq0mOcBHuo0k57TchyBsSw3fqa1B1iQ5OVd7EMfYb6eR5fpI2hD0/nXaW3gACopqEs1qbSGebpNDMQhZ6VffVm9hL49NCqBVAyIHtWmt3aA1YUcjVcKndeA2u8+WQzA5ObQ83Cvq+XHnF7Q8tmAQzlOG1seG8uo9O0f1IxMGEbb/Lq40SoMdzENqVEQnaKOjo4TDUKyQeFS0AfT8DH0GjdpNHSi/ItQOvG7GUfwNQlEZJAf4EI+K6AAVifx2EKiXDRmH192TCR08Ri8AaiuGr0LfCSkn6lDY0WjRq7jOvOMpzp86r4saAupaWDbOqC+zS7Y9jDCbznvxmIHf01Nx5XkN7ctKom5nXOUwvciVwxmDC3qdRD7b8xvzTMIhyFDDhT6mqzlGsOUtBg4i8KuvuahF/B1P9hzA9nCItotr39v6D/8wHPwPxGfphC6yJdIAAAAASUVORK5CYII=;" parent="1" vertex="1">
          <mxGeometry x="877" y="122.5" width="72.32" height="65" as="geometry" />
        </mxCell>
        <mxCell id="liBnOG251hMEMn1EUAHr-71" value="&lt;font style=&quot;font-size: 20px&quot;&gt;eureka-server&lt;br&gt;&lt;/font&gt;" style="text;html=1;strokeColor=none;fillColor=none;align=center;verticalAlign=middle;whiteSpace=wrap;rounded=0;" parent="1" vertex="1">
          <mxGeometry x="957.49" y="122.5" width="172.51" height="60" as="geometry" />
        </mxCell>
        <mxCell id="liBnOG251hMEMn1EUAHr-72" value="" style="rounded=1;whiteSpace=wrap;html=1;fontSize=20;fillColor=none;strokeWidth=3;strokeColor=#20bf50;" parent="1" vertex="1">
          <mxGeometry x="847.48" y="1240" width="300" height="110" as="geometry" />
        </mxCell>
        <mxCell id="liBnOG251hMEMn1EUAHr-73" value="" style="shape=image;verticalLabelPosition=bottom;labelBackgroundColor=default;verticalAlign=top;aspect=fixed;imageAspect=0;image=data:image/png,iVBORw0KGgoAAAANSUhEUgAAAO0AAADVCAMAAACMuod9AAAAilBMVEX///9tsz9qsjuGv2NqsjhmsDNhrilkry9psTlkrzBgrihfrST9/vz0+fHy+O7L4r7r9Obg7th1t0q01qHJ4byt0pjS5sfk8N2JwGi42KaVxniizYqnz5CMwmy11qJwtUN9u1e/3K+byYCXx3t7ulSQxHLR5sbY6c/f7dhaqxm+3K2p0JTD3bTo8uERKsFgAAAO20lEQVR4nO1d2XbiOBDFshav7JAAIRgCIRPI///eSLYxNra1WV4e+j7MnO500yok1XarSqPRP/zDPyQIZpvd9t1uD5fT6juUXMw4aFXU5R5iBB0HtAbHcRDB581YZj2na3uyjm+EQKsTAIT3M+GCwv9Obcka7nzUjagJHPz+JljSByItCfuLOpU1kXfHvZchsch3G7KObdK1rAwI8o7zClnOpQVhr9DpQ1gK77d2USE7bERWfctj4vckKwXe1a1qwaR1l6aFPfYoLN29Gr0bYPZT592wsH3ubCxu9e5uEq2JpQyzNP56FpYKtKlYVgBA/EN0NCrtHPQsrGX5FZp549IfUN0JIpPCLty+ZaUSzUvLCiDdhMOWiusbPMrj3s8xg/v5uq4bvbXkviZmj/K2I8dYAPxiVsdMIR9GAZXZsY0JO8N9y5kAfhXXdaFHGE+S/xNjRznqX0UlwAVF9Y3TPZ3Qo+zeDQm77MU7rkLhvAbsevksQgqxOQcjGIA+fgDnXESmTFDic7zTo+yZ8ZU/Og/y6gFgtqw73VBwSILBu2vKV54OREUlQKvHstj18tIcTUgtpLM1Ie2+rzCvGniaLIs5d+7HY5E208oGknHXQW1ttoUnZmPP2Sp/mZthIBk3AAe5CMyE+mTnmEyzVbLrBmtjYGn8Dsb6PADOafjp5bNRZ+YwNxU2HIbLWAC5v7HbRVb5ha7oUcai7KQIuwFZnwyHA/0PKqpg5tyiUtSghv5j+Do40ctSSfMg931Y1ucJ5/Bqbr5YkNvInfoemPXJAKxSxBNHBo3cqcFZnxQgZ3seiCODJoTQZkDhQB6AVClfG1gA6Asben2LVQ0A/6qWy9LoWMwI1uE0QFtrMZqzfIwZYhtUlYWVws8wVZRzqEvJwCYhfTRI64POtVaGJVpdzThoMsitJfv6FbOQXjcOGuSlxR+cFbM4CK04f6AeqyE6yD4/r2glAZI6xoML9Gj8CgQxDjMiWs7jdngqiryLNNCSXdy1urCzwTkWwBebUt2Lex6ag4zmlf7TC6hfrxH13Qd2a4HH08VP7Fg+XfXiPgjvoQBZku7vUsfiDokckN/YUZJRRws1YaeDSs+QSCGu0XCVh0QOIDWikhlOpCTsejgOsoNval7+kcW4Mto7w2DSM9DfVkey9WAxrtJpGAo5IFGqW0agSJCEwxAW+pcfZVlHSXKqXGhUiyGQAwD5J6XL98QHVClofetfRQECVtpZ8Ni/kD4Vds/Wh26rPdEVleIPKxSK9UwOQLqtqmq4iIAaFCibQz/0Kio00Opiy4dBn32RAxBhuLuaaGJiagpJfVAv6RkAXQz2m6ZE8wMs8SjHWn91m2d0ICKY2Ltls6taxI8s1TdrP/aJe9YQolJiD152v2vjLXisckoqW9NC7SaVDSLXdQn2MCbQOp8j+2vx+Xt9M7mfBbCgT6I9yGTtJqAyEuwDe/u129yXk/VsPB6HYau9lCn2UKa4JjCzs4BdRnjerSbX1raPC1aOLk4q3ww4yI7rWftNT2KmYL4jFvmO48ZeFMJ4e592cVi5mMko5UsjBxkgfFhphWjGweovRJm4RrWbNGr5GIaoo0T/OF/8P9OAHHC8qEnUoo06Uy32lI/a1gfibU/bWhfXsTIxbm1NoOsyOv6pNwVcl1NnzDOXHtEkBwDe92dsrnUNyHFcwFnXn56KcuctTl4Q4lIX6FwJn8XVqt10fL0SB0MI/bqfTPk55bUONU3sXj2m0arW82eN9JwqMR1yACsyacZB6ncP8DLoGuSAg/TrCc1g+V99k+KcE/NpkAMoMj9wQREHDiHA3Iu6/tSTsvXBrY2Fkcbd57QQUJe/rmxKnRzo/cpSJK2ZNdhSaa1qt1KZHMCm+lwb4Eh4JW83WNflpkwO+ManhqgjANyQLm4NqtQsirJa3gB2dnRDPM8wKUKv4ghVBztUTtjoGmOfPxLgt6bkXpUcqJme0jEuDr/YoK5qSpEcQG2McVLGGgs6bdn4iwppFWs3wbz3FBtFcLAQv1wsDoLK08QU0zN+v3FAihviRq+jRFq3JK0iOYAHYHtiskpEfFyrGhgDJVktaKQJvzFowIYFSYR48gp+yQyqdQ4AOIRLy0p+hNT7T3JmC+tVJAdev6t+cPXpSkS19LNYWrfgbu2UrI/BET8NwHKj4q6QRNqCmQoVt3YQ+pgl0IRb+5iYlM/WHJV8RuminFbxKdctfk1tTY7FVcszGh6pp4drPPZBnNV9SPssNgmVFLKBuRnNMWZLltEf61Ta51FW4/RMjpjTxpmdRk+iOGiSXlIn63D8VdnbRu3opvDFViylPzLZsrkJSvZHSOx3gEV8PKWKcRcPabMEhgoVr9f3aBaTOFwjUsmEzEnMQnqV2ijDUz91kBSuSX7t2bnNuK+5vLANJ4SYwDQdLSt3o7I0ahbkKpTm9u80jmF8EgVBfIZsJ93J6++I4fZ9kEMruXayozusxy0lD2kV7q3Xs7EN5snJ9CX7iJ+OU3Zv5bvX+tbIwTlZKpL1554zCjOdLG9voXSHZDuIkpXKd/l8ZwmozN5upH0p8wPUlWCn28KjuYo4ZqJlvtRaOgPXa2QbpDtrEXliMTu2z95UaY4aWK2IIYcwVVBKVjAztzlqTFYpmx0oroaplS4cKDTDPyvdclyQ7MWFtzbkkMIbeuyIr1CYlcsuPn9zKsmKqLahm8NTtShc2pxKLvRSSFpcndkgRrDMOljUyLZbKd5jeJPb3AazxxphlQmr0k87eiqpF69arpim8bRPPVyeNgOpea6Pb+lFsckl4nrxksfz59okkox5pKlzi7yWuEoNMPR7oH/W7tM8CkZKlfCZfE+g3BIktbfdS7vKaRTl4iwb1J0ImckWnZ/k8D3n5ikXeqQ+YiXFK0EYdO0mz2AuOlMv9EitbeWqJYrO1SaDNMYi3yeK1KcznuL9q8npiOc9dJpLLr4JByNlnRHEf7+OWQ+EoVCX3sXdzd8s56yuIBNvs7ZSW9gI1M7DflUI94V7BTWETYb3ccI2URVR01ni0liiQvJIS9iEguf4IyKyr6OIj25s4WvXEjah4LnFPwJGqLZm3Sg2uLgKZGs5NfFB5TLrgkC3i0zN9fyiPTRMT/w57JwKRgQI6qZady/GF+9FdxBBQ2kd9vHN558KQcM8abdQKljh16skP+OviHh6n7Cuiz+rst3s+RGWTpZf/x4qH8yPkmA2uFaoTWZkYrmv/zTQTg3FjIiE68evU27t4i7n5UPlVM+rl8FJcq4HvwZdf048F/cDKR8p19ZmxuM8m1ReidtfoJgFk0KwAVX/ZP2bvmKw7Jvk014LnhWSqVFSwvQDViWJQJN67zgzIVsdzxHWdCXcdV/9hjuaN1AQcWm5NMXLndfvmiszmS4OJfuaAH81yYDFnf/ybBGvn88UOxLcbVxzZZxmHXNvzLEg8gUi3F5NEw+ch/e9X7Ku2T8QNUv2HYAiG8l7Q0W2dqcW4/s7dmtPj8N5Tl4KccLJV7HUXP66ET/yt4k4olJVbDfM4sZjDhSH2fOoA23OOlzvDh7ieaYINi3siF1GZa+ANxvB1VFUPxsbEX7xDvBPjXVCvG5Rk1AJ3LkXKvQ4w3i5xRgJsvOARM0TuO/s+3Q4b8vUgNtVXvPiUhXG3x9nj3NTs49sfIgpTvEF1AhduNQBAFK6hEo6xwRK1LAgb2WAUbvFyhXp5Aq5s4gAFIk7Xe4sT0pSuj7yYcJDW+FkaTrfW8BNUQHeizVvv9s5diXrCQEiNyPcYSJsPTnAB586AH5l0ie4Lmwk1Ei5jyFwY4YV3ibL1U6vCKgDb/eyzOlkF/lEXlIaUXmRocrJwE6PojZXdRVU2iCYbW94/dyzw6vSoA1cf2eKRvt7VMo16AwWPfoEyHwyCmb3E8RKWxp/VTg6GitsuPuPr7lB291YWEYFyAETtS1lfwt5h5U55jv8yqxlo3hUouVaefoWQBiuTOZ7vvP1Ck0+yNCs3YKoc6OijqZ5QrAhl2FyjrLluP7502zpRnDL53oa9+8Ym5HtELK/G65ACjaocNXkK/Br8FMx/9xxMSaYKChhelW/Jqa7xILNS27WQNN3iToA+H05DYLx+uRLyUsV8Hw1M15FN92h18SAgXToK3UA55lHMN4LiyPpMYg25rmjYGL7JTfcNcHaFMdOwUJZwI6rxKioxq/qiLniO1hxjQyRNvmmRvDytPulNtBxCN4vzTd0hpMTrE74eGYK4/Pj4l597prxww5xTt/Gr2q4XtCoo0ZZ6L/b/IJn0qZMiVa0m1Czul0bFjX8Oe4i6ozX20NjNZhP6qDsq7y60g5xL0uToo6vk9sFEIz4znjjnP4TWb1nhY4vNO86aMtuTzAeX7+XyzvFcfMZ4/d+Xy6Xk+/v68/fNHmLovY7CcL4798/tpcD9oiLHLGLI/cwjhSyOTag/Jn55prD5fe42kdzSH0P4jKgDPEvCQNmIAha8/n5fI4Y7BRRRH/nAJj3QoVEjrQDo0ByiZGN3i3/qFA+BxCCEhuR/uH4GZkyZCXMf5TZ6peUOqggRQfxFrAyOcBH2nVQUZPT/yt2ktUzKkiuZ5k7k+/dbRHGR+ek7+CWjrI9gIOsRQ7wkVAHr0HVMB61Nt+mFCTWHReY89kQbq0mOcBHuo0k57TchyBsSw3fqa1B1iQ5OVd7EMfYb6eR5fpI2hD0/nXaW3gACopqEs1qbSGebpNDMQhZ6VffVm9hL49NCqBVAyIHtWmt3aA1YUcjVcKndeA2u8+WQzA5ObQ83Cvq+XHnF7Q8tmAQzlOG1seG8uo9O0f1IxMGEbb/Lq40SoMdzENqVEQnaKOjo4TDUKyQeFS0AfT8DH0GjdpNHSi/ItQOvG7GUfwNQlEZJAf4EI+K6AAVifx2EKiXDRmH192TCR08Ri8AaiuGr0LfCSkn6lDY0WjRq7jOvOMpzp86r4saAupaWDbOqC+zS7Y9jDCbznvxmIHf01Nx5XkN7ctKom5nXOUwvciVwxmDC3qdRD7b8xvzTMIhyFDDhT6mqzlGsOUtBg4i8KuvuahF/B1P9hzA9nCItotr39v6D/8wHPwPxGfphC6yJdIAAAAASUVORK5CYII=;" parent="1" vertex="1">
          <mxGeometry x="876.99" y="1262.5" width="72.32" height="65" as="geometry" />
        </mxCell>
        <mxCell id="liBnOG251hMEMn1EUAHr-74" value="&lt;font style=&quot;font-size: 20px&quot;&gt;spring cloud config&lt;br&gt;&lt;/font&gt;" style="text;html=1;strokeColor=none;fillColor=none;align=center;verticalAlign=middle;whiteSpace=wrap;rounded=0;" parent="1" vertex="1">
          <mxGeometry x="957.48" y="1262.5" width="172.51" height="60" as="geometry" />
        </mxCell>
        <mxCell id="liBnOG251hMEMn1EUAHr-75" value="" style="rounded=1;whiteSpace=wrap;html=1;fontSize=20;fillColor=none;strokeWidth=3;strokeColor=#20bf50;" parent="1" vertex="1">
          <mxGeometry x="847.48" y="1540" width="300" height="110" as="geometry" />
        </mxCell>
        <mxCell id="liBnOG251hMEMn1EUAHr-77" value="&lt;font style=&quot;font-size: 20px&quot;&gt;github&lt;br&gt;&lt;/font&gt;" style="text;html=1;strokeColor=none;fillColor=none;align=center;verticalAlign=middle;whiteSpace=wrap;rounded=0;" parent="1" vertex="1">
          <mxGeometry x="957.48" y="1562.5" width="172.51" height="60" as="geometry" />
        </mxCell>
        <mxCell id="liBnOG251hMEMn1EUAHr-78" value="" style="shape=image;html=1;verticalAlign=top;verticalLabelPosition=bottom;labelBackgroundColor=#ffffff;imageAspect=0;aspect=fixed;image=https://cdn4.iconfinder.com/data/icons/ionicons/512/icon-social-github-128.png;fontSize=20;" parent="1" vertex="1">
          <mxGeometry x="876.15" y="1555.5" width="74" height="74" as="geometry" />
        </mxCell>
        <mxCell id="liBnOG251hMEMn1EUAHr-80" value="" style="endArrow=classic;html=1;rounded=0;fontSize=20;strokeColor=#20BF50;strokeWidth=3;" parent="1" edge="1">
          <mxGeometry width="50" height="50" relative="1" as="geometry">
            <mxPoint x="1000" y="1360" as="sourcePoint" />
            <mxPoint x="1000" y="1520" as="targetPoint" />
          </mxGeometry>
        </mxCell>
        <mxCell id="liBnOG251hMEMn1EUAHr-81" value="" style="endArrow=none;html=1;rounded=0;fontSize=20;strokeColor=#20BF50;strokeWidth=3;" parent="1" edge="1">
          <mxGeometry width="50" height="50" relative="1" as="geometry">
            <mxPoint x="1000" y="1240" as="sourcePoint" />
            <mxPoint x="1000" y="230" as="targetPoint" />
          </mxGeometry>
        </mxCell>
        <mxCell id="liBnOG251hMEMn1EUAHr-82" value="" style="endArrow=none;html=1;rounded=0;fontSize=20;strokeColor=#20BF50;strokeWidth=3;" parent="1" edge="1">
          <mxGeometry width="50" height="50" relative="1" as="geometry">
            <mxPoint x="720" y="530" as="sourcePoint" />
            <mxPoint x="1000" y="530" as="targetPoint" />
          </mxGeometry>
        </mxCell>
        <mxCell id="liBnOG251hMEMn1EUAHr-83" value="" style="rounded=1;whiteSpace=wrap;html=1;fontSize=20;fillColor=none;strokeWidth=3;strokeColor=#20bf50;" parent="1" vertex="1">
          <mxGeometry x="1270" y="460" width="300" height="110" as="geometry" />
        </mxCell>
        <mxCell id="liBnOG251hMEMn1EUAHr-85" value="&lt;font style=&quot;font-size: 20px&quot;&gt;stock-service&lt;br&gt;&lt;/font&gt;" style="text;html=1;strokeColor=none;fillColor=none;align=center;verticalAlign=middle;whiteSpace=wrap;rounded=0;" parent="1" vertex="1">
          <mxGeometry x="1370" y="481.25" width="172.51" height="60" as="geometry" />
        </mxCell>
        <mxCell id="liBnOG251hMEMn1EUAHr-86" value="" style="shape=image;verticalLabelPosition=bottom;labelBackgroundColor=default;verticalAlign=top;aspect=fixed;imageAspect=0;image=https://perfectacle.github.io/2017/08/02/Spring-boot-study-001day/thumb.png;" parent="1" vertex="1">
          <mxGeometry x="1300" y="660" width="67.5" height="67.5" as="geometry" />
        </mxCell>
        <mxCell id="liBnOG251hMEMn1EUAHr-87" value="" style="rounded=1;whiteSpace=wrap;html=1;fontSize=20;fillColor=none;strokeWidth=3;strokeColor=#20bf50;" parent="1" vertex="1">
          <mxGeometry x="1270" y="638.75" width="300" height="110" as="geometry" />
        </mxCell>
        <mxCell id="liBnOG251hMEMn1EUAHr-88" value="&lt;font style=&quot;font-size: 20px&quot;&gt;account-service&lt;br&gt;&lt;/font&gt;" style="text;html=1;strokeColor=none;fillColor=none;align=center;verticalAlign=middle;whiteSpace=wrap;rounded=0;" parent="1" vertex="1">
          <mxGeometry x="1370" y="660" width="172.51" height="60" as="geometry" />
        </mxCell>
        <mxCell id="liBnOG251hMEMn1EUAHr-89" value="" style="shape=image;verticalLabelPosition=bottom;labelBackgroundColor=default;verticalAlign=top;aspect=fixed;imageAspect=0;image=https://perfectacle.github.io/2017/08/02/Spring-boot-study-001day/thumb.png;" parent="1" vertex="1">
          <mxGeometry x="1300" y="1011.25" width="67.5" height="67.5" as="geometry" />
        </mxCell>
        <mxCell id="liBnOG251hMEMn1EUAHr-90" value="" style="rounded=1;whiteSpace=wrap;html=1;fontSize=20;fillColor=none;strokeWidth=3;strokeColor=#20bf50;" parent="1" vertex="1">
          <mxGeometry x="1270" y="990" width="300" height="110" as="geometry" />
        </mxCell>
        <mxCell id="liBnOG251hMEMn1EUAHr-91" value="&lt;font style=&quot;font-size: 20px&quot;&gt;push-service&lt;br&gt;&lt;/font&gt;" style="text;html=1;strokeColor=none;fillColor=none;align=center;verticalAlign=middle;whiteSpace=wrap;rounded=0;" parent="1" vertex="1">
          <mxGeometry x="1370" y="1011.25" width="172.51" height="60" as="geometry" />
        </mxCell>
        <mxCell id="liBnOG251hMEMn1EUAHr-92" value="" style="endArrow=none;html=1;rounded=0;fontSize=20;strokeColor=#20BF50;strokeWidth=3;" parent="1" edge="1">
          <mxGeometry width="50" height="50" relative="1" as="geometry">
            <mxPoint x="1000" y="350" as="sourcePoint" />
            <mxPoint x="1250" y="350" as="targetPoint" />
          </mxGeometry>
        </mxCell>
        <mxCell id="liBnOG251hMEMn1EUAHr-93" value="" style="endArrow=none;html=1;rounded=0;fontSize=20;strokeColor=#20BF50;strokeWidth=3;" parent="1" edge="1">
          <mxGeometry width="50" height="50" relative="1" as="geometry">
            <mxPoint x="1000" y="530" as="sourcePoint" />
            <mxPoint x="1250" y="530" as="targetPoint" />
          </mxGeometry>
        </mxCell>
        <mxCell id="liBnOG251hMEMn1EUAHr-94" value="" style="endArrow=none;html=1;rounded=0;fontSize=20;strokeColor=#20BF50;strokeWidth=3;" parent="1" edge="1">
          <mxGeometry width="50" height="50" relative="1" as="geometry">
            <mxPoint x="1000" y="700" as="sourcePoint" />
            <mxPoint x="1250" y="700" as="targetPoint" />
          </mxGeometry>
        </mxCell>
        <mxCell id="liBnOG251hMEMn1EUAHr-96" value="" style="rounded=1;whiteSpace=wrap;html=1;fontSize=20;fillColor=none;strokeWidth=3;strokeColor=#20bf50;" parent="1" vertex="1">
          <mxGeometry x="1270" y="1240" width="300" height="110" as="geometry" />
        </mxCell>
        <mxCell id="liBnOG251hMEMn1EUAHr-97" value="&lt;font style=&quot;font-size: 20px&quot;&gt;telegram&lt;br&gt;&lt;/font&gt;" style="text;html=1;strokeColor=none;fillColor=none;align=center;verticalAlign=middle;whiteSpace=wrap;rounded=0;" parent="1" vertex="1">
          <mxGeometry x="1370" y="1261.25" width="172.51" height="60" as="geometry" />
        </mxCell>
        <mxCell id="liBnOG251hMEMn1EUAHr-99" value="" style="endArrow=classic;html=1;rounded=0;fontSize=20;strokeColor=#20BF50;strokeWidth=3;" parent="1" edge="1">
          <mxGeometry width="50" height="50" relative="1" as="geometry">
            <mxPoint x="1430" y="1101.25" as="sourcePoint" />
            <mxPoint x="1430" y="1231.25" as="targetPoint" />
          </mxGeometry>
        </mxCell>
        <mxCell id="liBnOG251hMEMn1EUAHr-101" value="" style="endArrow=none;html=1;rounded=0;fontSize=20;strokeColor=#20BF50;strokeWidth=3;" parent="1" edge="1">
          <mxGeometry width="50" height="50" relative="1" as="geometry">
            <mxPoint x="200" y="530" as="sourcePoint" />
            <mxPoint x="400" y="530" as="targetPoint" />
          </mxGeometry>
        </mxCell>
        <mxCell id="liBnOG251hMEMn1EUAHr-102" value="" style="endArrow=none;html=1;rounded=0;fontSize=20;strokeColor=#20BF50;strokeWidth=3;" parent="1" edge="1">
          <mxGeometry width="50" height="50" relative="1" as="geometry">
            <mxPoint x="1720" y="1050" as="sourcePoint" />
            <mxPoint x="1720" y="530" as="targetPoint" />
          </mxGeometry>
        </mxCell>
        <mxCell id="liBnOG251hMEMn1EUAHr-103" value="" style="endArrow=none;html=1;rounded=0;fontSize=20;strokeColor=#20BF50;strokeWidth=3;" parent="1" edge="1">
          <mxGeometry width="50" height="50" relative="1" as="geometry">
            <mxPoint x="1600" y="530" as="sourcePoint" />
            <mxPoint x="1720" y="530" as="targetPoint" />
          </mxGeometry>
        </mxCell>
        <mxCell id="liBnOG251hMEMn1EUAHr-104" value="" style="endArrow=none;html=1;rounded=0;fontSize=20;strokeColor=#20BF50;strokeWidth=3;" parent="1" edge="1">
          <mxGeometry width="50" height="50" relative="1" as="geometry">
            <mxPoint x="1600" y="530" as="sourcePoint" />
            <mxPoint x="1830" y="530" as="targetPoint" />
          </mxGeometry>
        </mxCell>
        <mxCell id="liBnOG251hMEMn1EUAHr-105" value="" style="endArrow=none;html=1;rounded=0;fontSize=20;strokeColor=#20BF50;strokeWidth=3;" parent="1" edge="1">
          <mxGeometry width="50" height="50" relative="1" as="geometry">
            <mxPoint x="1600" y="1051.25" as="sourcePoint" />
            <mxPoint x="1720" y="1051.25" as="targetPoint" />
          </mxGeometry>
        </mxCell>
        <mxCell id="liBnOG251hMEMn1EUAHr-106" value="" style="endArrow=none;html=1;rounded=0;fontSize=20;strokeColor=#20BF50;strokeWidth=3;" parent="1" edge="1">
          <mxGeometry width="50" height="50" relative="1" as="geometry">
            <mxPoint x="1600" y="700" as="sourcePoint" />
            <mxPoint x="1840" y="700" as="targetPoint" />
          </mxGeometry>
        </mxCell>
        <mxCell id="liBnOG251hMEMn1EUAHr-107" value="" style="shape=cylinder3;whiteSpace=wrap;html=1;boundedLbl=1;backgroundOutline=1;size=15;fontSize=20;strokeColor=#20bf50;strokeWidth=3;fillColor=none;" parent="1" vertex="1">
          <mxGeometry x="1880" y="663.75" width="60" height="80" as="geometry" />
        </mxCell>
        <mxCell id="liBnOG251hMEMn1EUAHr-108" value="" style="rounded=1;whiteSpace=wrap;html=1;fontSize=20;fillColor=none;strokeWidth=3;strokeColor=#20bf50;" parent="1" vertex="1">
          <mxGeometry x="1850" y="650" width="300" height="110" as="geometry" />
        </mxCell>
        <mxCell id="liBnOG251hMEMn1EUAHr-109" value="&lt;font style=&quot;font-size: 20px&quot;&gt;database&lt;br&gt;&lt;/font&gt;" style="text;html=1;strokeColor=none;fillColor=none;align=center;verticalAlign=middle;whiteSpace=wrap;rounded=0;" parent="1" vertex="1">
          <mxGeometry x="1950" y="671.25" width="172.51" height="60" as="geometry" />
        </mxCell>
        <mxCell id="liBnOG251hMEMn1EUAHr-112" value="" style="rounded=1;whiteSpace=wrap;html=1;fontSize=20;fillColor=none;strokeWidth=3;strokeColor=#20bf50;" parent="1" vertex="1">
          <mxGeometry x="1840" y="460" width="300" height="110" as="geometry" />
        </mxCell>
        <mxCell id="liBnOG251hMEMn1EUAHr-114" value="" style="rounded=1;whiteSpace=wrap;html=1;fontSize=20;fillColor=none;strokeWidth=3;strokeColor=#20bf50;" parent="1" vertex="1">
          <mxGeometry x="1850" y="470" width="300" height="110" as="geometry" />
        </mxCell>
        <mxCell id="liBnOG251hMEMn1EUAHr-115" value="" style="rounded=1;whiteSpace=wrap;html=1;fontSize=20;fillColor=none;strokeWidth=3;strokeColor=#20bf50;" parent="1" vertex="1">
          <mxGeometry x="1860" y="480" width="300" height="110" as="geometry" />
        </mxCell>
        <mxCell id="liBnOG251hMEMn1EUAHr-116" value="&lt;font style=&quot;font-size: 20px&quot;&gt;algorithms&lt;/font&gt;" style="text;html=1;strokeColor=none;fillColor=none;align=center;verticalAlign=middle;whiteSpace=wrap;rounded=0;" parent="1" vertex="1">
          <mxGeometry x="1913.74" y="495" width="172.51" height="60" as="geometry" />
        </mxCell>
        <mxCell id="liBnOG251hMEMn1EUAHr-120" value="" style="shape=image;verticalLabelPosition=bottom;labelBackgroundColor=default;verticalAlign=top;aspect=fixed;imageAspect=0;image=https://perfectacle.github.io/2017/08/02/Spring-boot-study-001day/thumb.png;" parent="1" vertex="1">
          <mxGeometry x="1300" y="321.25" width="67.5" height="67.5" as="geometry" />
        </mxCell>
        <mxCell id="liBnOG251hMEMn1EUAHr-121" value="" style="rounded=1;whiteSpace=wrap;html=1;fontSize=20;fillColor=none;strokeWidth=3;strokeColor=#20bf50;" parent="1" vertex="1">
          <mxGeometry x="1270" y="300" width="300" height="110" as="geometry" />
        </mxCell>
        <mxCell id="liBnOG251hMEMn1EUAHr-122" value="&lt;font style=&quot;font-size: 20px&quot;&gt;ebest-api-service&lt;/font&gt;" style="text;html=1;strokeColor=none;fillColor=none;align=center;verticalAlign=middle;whiteSpace=wrap;rounded=0;" parent="1" vertex="1">
          <mxGeometry x="1370" y="321.25" width="197.67" height="68.75" as="geometry" />
        </mxCell>
        <mxCell id="liBnOG251hMEMn1EUAHr-123" value="" style="endArrow=none;html=1;rounded=0;fontSize=20;strokeColor=#20BF50;strokeWidth=3;" parent="1" edge="1">
          <mxGeometry width="50" height="50" relative="1" as="geometry">
            <mxPoint x="1000" y="1041.25" as="sourcePoint" />
            <mxPoint x="1250" y="1041.25" as="targetPoint" />
          </mxGeometry>
        </mxCell>
        <mxCell id="liBnOG251hMEMn1EUAHr-124" value="" style="sketch=0;outlineConnect=0;fontColor=#232F3E;gradientColor=none;fillColor=#20BF50;strokeColor=none;dashed=0;verticalLabelPosition=bottom;verticalAlign=top;align=center;html=1;fontSize=12;fontStyle=0;aspect=fixed;pointerEvents=1;shape=mxgraph.aws4.traditional_server;" parent="1" vertex="1">
          <mxGeometry x="1877.5" y="312.25" width="45" height="78" as="geometry" />
        </mxCell>
        <mxCell id="liBnOG251hMEMn1EUAHr-126" value="" style="rounded=1;whiteSpace=wrap;html=1;fontSize=20;fillColor=none;strokeWidth=3;strokeColor=#20bf50;" parent="1" vertex="1">
          <mxGeometry x="1840" y="300" width="300" height="110" as="geometry" />
        </mxCell>
        <mxCell id="liBnOG251hMEMn1EUAHr-127" value="&lt;font style=&quot;font-size: 20px&quot;&gt;ebest-server&lt;/font&gt;" style="text;html=1;strokeColor=none;fillColor=none;align=center;verticalAlign=middle;whiteSpace=wrap;rounded=0;" parent="1" vertex="1">
          <mxGeometry x="1940" y="321.25" width="172.51" height="60" as="geometry" />
        </mxCell>
        <mxCell id="liBnOG251hMEMn1EUAHr-128" value="" style="outlineConnect=0;dashed=0;verticalLabelPosition=bottom;verticalAlign=top;align=center;html=1;shape=mxgraph.aws3.internet_3;fillColor=#20BF50;gradientColor=none;fontSize=20;strokeColor=#20bf50;strokeWidth=3;" parent="1" vertex="1">
          <mxGeometry x="1680" y="283.63" width="79.5" height="54" as="geometry" />
        </mxCell>
        <mxCell id="liBnOG251hMEMn1EUAHr-130" value="" style="endArrow=none;html=1;rounded=0;fontSize=20;strokeColor=#20BF50;strokeWidth=3;" parent="1" edge="1">
          <mxGeometry width="50" height="50" relative="1" as="geometry">
            <mxPoint x="1570" y="350.69" as="sourcePoint" />
            <mxPoint x="1830" y="349" as="targetPoint" />
          </mxGeometry>
        </mxCell>
        <mxCell id="isWQ-CM0-z6PvFcls3qB-2" value="" style="shape=image;verticalLabelPosition=bottom;labelBackgroundColor=default;verticalAlign=top;aspect=fixed;imageAspect=0;image=data:image/png,iVBORw0KGgoAAAANSUhEUgAAANQAAADuCAMAAAB24dnhAAAAkFBMVEX+cTn////+bzb+ZiL+fU/+Yxr/59/+bTH+bTL+ZyT+ay7+aiv+ZB7+bzT+aSj/+/n/7uj+d0P/9vP+rJH/3tT+dT7/1Mf+e0n/4dj/xbP+spn/zb3+jGT+iV/+oYL+tp/+kWv+pon+hFf+nHv/wa7+fU7+l3P/w7D+tZ3/y7r/08X+kGn/8u3+WAD/vKf+g1QIp1SSAAANeUlEQVR4nO2daXeCOhCGIamyBbS41mrr3vXa///vLiggywAhmbH2nvt+bHuqj5LJO5NJYpj/QRm//QYo9D/UX9FNoML+8/51sXjdP/fDW7wePdR0M/N44Hmu63kB92abKflLEkMNR67jMiMn5jrWaEj7qqRQ/TV3jaqYy499ytclhApfhA0gnWWLF8LRRQd1CqBvKZMbnMhemgpqOguakGIFj1QhgwZquBSsjSkaW2JJEzEooAYjXjuYSkOLjwYEb4AA6sP35JBiudYT/jtAh5ofHIknL/cMOrMx9ntAhgp3wu+CFMsXx2/cd4EL9epYXZFiWXyB+jYwoZ4nrWG8Tp7xjPhG8KD6K95pMBXF+GqO9lawoJo8kZx8POeEBHXyGj2RnNCcEwqUhCeSE5JzQoCS80RyYmKF4Jy0oeQ9kZxsoe+cdKE+7A6eSE76zkkPqqsnkpO2c9KB+lbwRHKKnJPO0NKAUvREcrL46BegPg30wVSUpz60FKH6Sx1PJCfm/Cg6JyWogbYnklM0tJSckwrUHsMTyclyXm8CNcbyRHLyJp/kUMM1VRivE+PbruXcblCDBa4nkpMvNt2GVieoTnUiTLlep6SkA9T8gcITSSqYdEhKpKFU6kSYYmIt7ZxkoV6by/23kO3IOic5qE/1OhGmXFfOOclA3cITySlyTjJJSTvUYPMbYbxOUuXcVqi323kiOVn8XRNqfHB+G6Iqb9JSzm2EGh5/N4zXqc05NUEtBGFqqye/11TOrYf6oE5t9dTknOqg5j/3EsZrVe+cYKjw5T4HU1FMfMHOCYRCKfffQpFzgsq5ANT0PjyRnFwPcE4VqOHX3Q+mopyHinMqQ52cO/JEcvLFbtAEFa7u0EC0yzXm9VB9425n22Yx/lQHNXb+QByvkVjAUHO8BcFfkHiHoIYeLRMj/sjEUxVqYNA+e+znh5iqN65AHYlNhBiPBe0rMDYoQX1w2ld0d6a5I/7c4tfIQ4Uu8YByQ/oXiZ6GAtSG+EN0zqP4iXhq9w95qGGP+NV+Lq/2QzwR8s8c1Auxk+BJSaFPPHL97RVqQJxreFm9eERcIrh8emeoJ1oolrMtBm2scEcZ1JI23RC5WsKUdrJijylUSPtFWWszpzXt8BX9BGpKG2mDQvH7m/YT9PYJ1DvpJFVutzyRUlkvCdSOckj5M7OkGeVkdZ4RY6gZZUQSlVacOWmscBIoyufBfSkzRVM95ePeG1ygCD0Ss4Fi48AifDTENzkUB1eSKPOc2FPQQtkriMk0V3ShiR5K1LQ+DOliBTmUV7vZZkFmbKmh2KSOyTQnVLGCGko0tBORGVtiKOtYz2SaRyJjSwwVNHZxUKUGtFDOvonJNPc0uQEplP/QzGSaDyTGlhSq19pT3id5XUood9PGRFRsJIRivsQmqAHFQgghFGxky3omMLZ0UPZShomkjEUHBRnZIfQzfF9BBhVAbYZfa+CHr+hTMBXUpaJY0pRzyAqi10eooEAjO2GgaUdfXiSCAo1svDLgQX3lO2RjSwQVAD2Tl4gAxY8QOV2kgQKN7KUoAZYs3nCNLQlUumhYUFo+4h/AL7eoxpYEqgf0IWeFPmYB7gnX2FJAgUb2WpKFCrbmBnNYEUAxA/gq8sXzamk9brZBnKwIoEAjm88GwSGHaWzxoewv4C0X83YwOH7hGVt8KAHUWsJSyHaAaewbz1egQ4FGtlwLAw0HnrHFhqouGppQ1RK0hmjLi9hQHNqF9liJbKCJRzO2yFDgcwWtBIBPKVbfHDIUaGTB/90DjO0AaQbGhXLegM8/KUL4qU26jBywhPGEM1mhQiUNXEUls6q9256p2DbpbgDn6C3KZIUKJSAjm3xDPLw0BbOf8EIJlgX7KLECE8rbAJ99UoJ1R+bDBerBHCU/gv4cpW8OESrf/Xb96C//mLmDK9Qg6aOFMhSUvjlEKA4d75E0l8b9sxlU2kcLGttPhFiBBwUa2SRPP3frXqHMQ4IKBUuEvjk8KA4Z2cTOnfuqc1Cpd4CmtVD/q0KDCqAjcxIja58Lszkoc30J3aAB0e+bw4Lym8zcpSyWh0oL6AKyitrGFguqycgmBcw8VBq6QWM7130AkaCyLRZ5JQlSOssWoNI5GXxqdfvmkKAcwB2kqayTbGoqQGXbI6BEWbdHHgfKgY4oSY1smjYWodKRAxpbzb45FCi7wcheY0EJKo0ioLHV65tDgeKQkU38zjVql6DSeA+WCfU2hGBAgcszacnVyZLBMtQwGVWgD9bqm0OAYj7wptIcwr0Cl6FStw5mLFrGFgEKrAylyxje9UcVKDP5NsDcUqdvTh8KtDppwM6HxSoU9FeZNPrm9KFAI5tkTOleuhqo1K2fdytW/of6Qpw2FHhqdlrrKpgnAGqcBDnQkKj3zelCgRXZcfLf7MKTCUCZx2Q+6kHW8aBqbHWhGm12r/BkQlBpTRD8bJQ3hGhCgauCaaW/1L0NQWXzEWhsVfvm9KDiekpF38lYKNfAQKjUrRsOZGwVN4ToQYEr7enqWTlQg1BZWAdLHIrLi1pQYE/EZzISCuG8HioLBwIqRqn1zWlBQUY22xdQCWg1UGmoBNuWhkphXQcKNLJpibVqNGqgMusA/jslY6sBBVdk0zDsVJZqDjVQ2bcBGluVDSEaUI1G1q2G6LpvKtu5imZs1aEajazBfirIdVDT7IwULGOrDgVt4wivEwvj21KkgKHG2+sRYcyCWhG6jyplKNDIFmpbPl8VsCCo8YrnDR5oUPada0uqULCR/adoQX2xzLUhVaHmy9IRgv4/KBVbVSioaSqaeLelM/xtcb23sgzVP1b+eAtuIetsbBWhwOfk/GUtSyeHWjy9nqMINTzy0h+Kr7qTgLsaWzWopm0c/aNTfA+ufflFcZ6ySn/k7OpPYM1cLykUaGQzDTci/47TRYDiN1XognHFpvHM8I4VWyWouv3ImcKFdz3VrA2Ked6i7Sj+bhVbJaig/Sj2wWkSpN0gjVAsmJzatyQNO4V1FSgbKpNU9fR4mYNSqAMA5fNHuePPO52XofRNuQe5ywCm2/hE8vpvyuZwDK/o89Ap/qkFCp8f5O40HK+FVQdlibXcFVPPB95t+lV2FM6sMQJm6u96BgRl9BpieF4fs84nXqobWuYYcsPhO0n+imNqIXfX6JOhcOeGTuYbBa6WzckF1eZT9dobgUKOqFsiC3z5a1HqMt9anXwlJP0KLfOCV8lLbLp9U+F7oHwqKcL6lOe2GoLOULElUX9HKGu+XjCSwJKHCkeOVicFVnMIb3akXaCGG34fzSFx7vDSgiUHNXzR+5byUAi9q5bYNWLJQPV3GLdTxA1eMRTKjgQrl7yrQEUJPso+UhFeoJDOHLX4uvYMijao+ZojbY3tmclReFhbbW2xqrGpzVDjFdq9i2cHHUO94h124YsVmFA0QSEiRY/LziQ4XtIH86R6qCjvwtwSe76X5XwQKO72YZ/PKmtodVCfXdOlNp1rkud8Z4V8Lk6E9SED9TxDRkpW785Qe/TjzpgzeWqDeprg33lw2W5xhkJ+/s5igbFvgtqrZICt4vMMCv38hLMirFMd1EktA2xTcgLVBYrmXKa4VHmCup1PHtElDoWjxcnOcDM87z0sQumlS41Kd8UkUGrL+1Ly3CjhyqDCkUt3unjpuH7znfAwWlcskhrFYSEIz6DN1piy1oED5VnI6Y0KjPJY3WvrdAY1JAlHt9T1nLprkwfx8ezkElcTk+tc+SC+MoJWIteRkm/H+ctU+UuNClDmNPijF1AxUdjhWGyc6j/e9S2WdbKDYsJd7gYb3dPlvXJizqpUTq20uP25KwU9u7JYBvTt/anLH+0ecKcl1Iz4d67p9Dl4bzsI9UcuVDWCGbwWDkP9iatv3dqDluug7v6SYptvavtK6qHu+jppJpYNlfsmqLu9+NsIJlB3vhzUnV7R7nrQjhd5KNN8u7fw3nyRuRyUOdjck3NiTvOV85JQkc1d3k149wyZvigZKNP8vA/nZInai0IUoOIdbL8+tHx+lOtpkoYyv3e/G96Z8yPXTNcFKnJODxQlfUmBV7EjQEXOyf8l52Q50P4qHChzsPiN8M4EmGBgQUXOaX3rocWCR+nBpAgVOafZTcO763ZpllSFildTbxbebbGR7CjUhTIHL4idDw1ifCXXQIwBdSPnFDzKda5jQUXOiToxdh35Fl0sqMg5OYSJsS1aEwwSKELnFA2m1kuRiKAi53QgcU6B0ZitE0NFzslGH1oueD7FLaHMAfKSgq8zmLCgIue0FGjPIOM/SjMTOpRpTrGck1y23ioUKKQlBcuRy9ZbhQQVLyloDi1fyGbrrcKCipzTSsc5dcnWW4UHZZrP6jUnz+qQrbcKE0rZOVkcWA7UEC6UGSo4JyaO3bL1ViFDdXdOCtl6q9ChOtacVLL1VhFAdXBOTcuBGqKAknVOTKhl662igYqc02NreA8e9RKMelFBxaeENzonFzz9Bkd0UI3OSStbbxUhVOSc1vD6vsWbdsXpixQqmrV2TmAXYgazHO+FFIkcKorvn0ffcTzXtm3L9RzH2CkW8zqIHCrWcLof7dbH3eJtjJVdNOomULfW/1B/Rf9JqH8Bi/3Y8CTxS78AAAAASUVORK5CYII=;" parent="1" vertex="1">
          <mxGeometry x="1301.96" y="70" width="62.36" height="70" as="geometry" />
        </mxCell>
        <mxCell id="isWQ-CM0-z6PvFcls3qB-8" value="" style="rounded=1;whiteSpace=wrap;html=1;fontSize=20;fillColor=none;strokeWidth=3;strokeColor=#20bf50;" parent="1" vertex="1">
          <mxGeometry x="1275" y="50" width="300" height="110" as="geometry" />
        </mxCell>
        <mxCell id="isWQ-CM0-z6PvFcls3qB-9" value="&lt;font style=&quot;font-size: 20px&quot;&gt;zipkin&lt;/font&gt;" style="text;html=1;strokeColor=none;fillColor=none;align=center;verticalAlign=middle;whiteSpace=wrap;rounded=0;" parent="1" vertex="1">
          <mxGeometry x="1375" y="71.25" width="197.67" height="68.75" as="geometry" />
        </mxCell>
        <mxCell id="isWQ-CM0-z6PvFcls3qB-10" value="" style="rounded=1;whiteSpace=wrap;html=1;dashed=1;strokeWidth=3;fillColor=none;strokeColor=#20BF50;" parent="1" vertex="1">
          <mxGeometry x="1250" y="270" width="350" height="870" as="geometry" />
        </mxCell>
        <mxCell id="isWQ-CM0-z6PvFcls3qB-11" value="" style="endArrow=none;html=1;rounded=0;dashed=1;strokeWidth=3;strokeColor=#20BF50;entryX=0.5;entryY=1;entryDx=0;entryDy=0;exitX=0.5;exitY=0;exitDx=0;exitDy=0;" parent="1" source="isWQ-CM0-z6PvFcls3qB-10" target="isWQ-CM0-z6PvFcls3qB-8" edge="1">
          <mxGeometry width="50" height="50" relative="1" as="geometry">
            <mxPoint x="1431.25" y="237.5" as="sourcePoint" />
            <mxPoint x="1481.25" y="187.5" as="targetPoint" />
          </mxGeometry>
        </mxCell>
        <mxCell id="cGoYkQHnm0zDNO1H1gx1-1" value="" style="shape=image;verticalLabelPosition=bottom;labelBackgroundColor=default;verticalAlign=top;aspect=fixed;imageAspect=0;image=https://perfectacle.github.io/2017/08/02/Spring-boot-study-001day/thumb.png;" parent="1" vertex="1">
          <mxGeometry x="1300" y="831.25" width="67.5" height="67.5" as="geometry" />
        </mxCell>
        <mxCell id="cGoYkQHnm0zDNO1H1gx1-2" value="" style="rounded=1;whiteSpace=wrap;html=1;fontSize=20;fillColor=none;strokeWidth=3;strokeColor=#20bf50;" parent="1" vertex="1">
          <mxGeometry x="1270" y="810" width="300" height="110" as="geometry" />
        </mxCell>
        <mxCell id="cGoYkQHnm0zDNO1H1gx1-3" value="&lt;font style=&quot;font-size: 20px&quot;&gt;order-service&lt;br&gt;&lt;/font&gt;" style="text;html=1;strokeColor=none;fillColor=none;align=center;verticalAlign=middle;whiteSpace=wrap;rounded=0;" parent="1" vertex="1">
          <mxGeometry x="1370" y="831.25" width="172.51" height="60" as="geometry" />
        </mxCell>
        <mxCell id="cGoYkQHnm0zDNO1H1gx1-4" value="" style="endArrow=none;html=1;rounded=0;fontSize=20;strokeColor=#20BF50;strokeWidth=3;" parent="1" edge="1">
          <mxGeometry width="50" height="50" relative="1" as="geometry">
            <mxPoint x="1000" y="871.25" as="sourcePoint" />
            <mxPoint x="1250" y="871.25" as="targetPoint" />
          </mxGeometry>
        </mxCell>
        <mxCell id="cGoYkQHnm0zDNO1H1gx1-5" value="" style="endArrow=none;html=1;rounded=0;fontSize=20;strokeColor=#20BF50;strokeWidth=3;" parent="1" edge="1">
          <mxGeometry width="50" height="50" relative="1" as="geometry">
            <mxPoint x="1600" y="870" as="sourcePoint" />
            <mxPoint x="1720" y="869" as="targetPoint" />
          </mxGeometry>
        </mxCell>
        <mxCell id="6HeJZbvanG4VO9C0C997-1" value="" style="sketch=0;aspect=fixed;html=1;points=[];align=center;image;fontSize=12;image=img/lib/mscae/Docker.svg;fillColor=none;" vertex="1" parent="1">
          <mxGeometry x="1519" y="53" width="50" height="41" as="geometry" />
        </mxCell>
        <mxCell id="6HeJZbvanG4VO9C0C997-4" value="&lt;font style=&quot;font-size: 40px&quot;&gt;local&lt;/font&gt;" style="text;html=1;strokeColor=none;fillColor=none;align=center;verticalAlign=middle;whiteSpace=wrap;rounded=0;" vertex="1" parent="1">
          <mxGeometry x="9.5" y="10" width="180.5" height="140" as="geometry" />
        </mxCell>
        <mxCell id="6HeJZbvanG4VO9C0C997-5" value="&lt;span style=&quot;font-size: 20px&quot;&gt;https://&lt;i&gt;&lt;font color=&quot;#ff3333&quot;&gt;centos-blog&lt;/font&gt;&lt;/i&gt;/trading-config-server&lt;/span&gt;" style="text;html=1;strokeColor=none;fillColor=none;align=center;verticalAlign=middle;whiteSpace=wrap;rounded=0;" vertex="1" parent="1">
          <mxGeometry x="789.25" y="1210" width="420.5" height="30" as="geometry" />
        </mxCell>
        <mxCell id="6HeJZbvanG4VO9C0C997-6" value="&lt;span style=&quot;font-size: 20px&quot;&gt;https://&lt;i&gt;&lt;font color=&quot;#ff3333&quot;&gt;centos-blog:9411&lt;/font&gt;&lt;/i&gt;&lt;/span&gt;" style="text;html=1;strokeColor=none;fillColor=none;align=center;verticalAlign=middle;whiteSpace=wrap;rounded=0;" vertex="1" parent="1">
          <mxGeometry x="1209.75" y="20" width="420.5" height="30" as="geometry" />
        </mxCell>
        <mxCell id="6HeJZbvanG4VO9C0C997-7" value="" style="shape=image;html=1;verticalAlign=top;verticalLabelPosition=bottom;labelBackgroundColor=#ffffff;imageAspect=0;aspect=fixed;image=https://cdn4.iconfinder.com/data/icons/social-media-2146/512/37_social-128.png;fontSize=40;fontColor=#FF3333;fillColor=none;" vertex="1" parent="1">
          <mxGeometry x="1290" y="1255" width="80" height="80" as="geometry" />
        </mxCell>
        <mxCell id="6HeJZbvanG4VO9C0C997-8" value="" style="outlineConnect=0;dashed=0;verticalLabelPosition=bottom;verticalAlign=top;align=center;html=1;shape=mxgraph.aws3.internet_3;fillColor=#20BF50;gradientColor=none;fontSize=20;strokeColor=#20bf50;strokeWidth=3;" vertex="1" parent="1">
          <mxGeometry x="1434.09" y="1160" width="79.5" height="54" as="geometry" />
        </mxCell>
      </root>
    </mxGraphModel>
  </diagram>
</mxfile>
